<?xml version="1.0" standalone="no"?>
<!DOCTYPE svg PUBLIC "-//W3C//DTD SVG 20010904//EN"
 "http://www.w3.org/TR/2001/REC-SVG-20010904/DTD/svg10.dtd">
<svg version="1.0" xmlns="http://www.w3.org/2000/svg"
 width="460.000000pt" height="460.000000pt" viewBox="0 0 460.000000 460.000000"
 preserveAspectRatio="xMidYMid meet">
<metadata>
Created by potrace 1.14, written by Peter Selinger 2001-2017
</metadata>
<g transform="translate(0.000000,460.000000) scale(0.100000,-0.100000)"
fill="#000000" stroke="none">
<path d="M3851 4559 c-2 -44 3 -45 46 -6 l23 20 -20 -40 c-10 -22 -25 -45 -34
-52 -13 -11 -15 -65 -7 -185 1 -5 11 -1 24 10 16 13 16 12 -3 -6 -14 -14 -27
-37 -28 -50 l-4 -25 24 21 c12 12 30 24 38 28 9 5 9 2 -2 -7 -10 -8 -15 -16
-12 -19 2 -3 -5 -22 -17 -42 -21 -36 -21 -43 -16 -284 3 -136 9 -257 13 -269
4 -16 14 -23 30 -23 29 0 30 -14 4 -71 -17 -38 -20 -66 -20 -215 0 -144 -3
-174 -16 -185 -13 -11 -15 -49 -12 -303 2 -216 0 -296 -9 -312 -14 -25 -14
-23 -13 -260 0 -100 -2 -189 -6 -198 -8 -20 -24 -21 -24 -1 0 20 -15 19 -37
-4 -10 -10 -37 -26 -61 -37 -33 -14 -49 -30 -69 -66 -21 -39 -31 -48 -53 -48
-35 0 -40 -17 -40 -139 0 -77 3 -96 18 -108 16 -14 16 -14 0 -9 -12 3 -18 0
-18 -9 0 -8 5 -15 11 -15 5 0 8 -4 4 -9 -3 -5 3 -12 12 -14 17 -4 17 -5 1 -6
-10 0 -24 -14 -33 -31 -14 -27 -14 -30 0 -30 26 0 16 -20 -20 -41 -19 -12 -38
-31 -41 -44 -11 -44 1 -939 13 -965 7 -14 12 -18 13 -10 0 13 1 13 10 0 7 -12
10 -11 15 5 14 43 24 60 25 45 1 -8 2 -33 4 -55 5 -66 20 -92 52 -91 23 1 29
7 36 34 5 18 26 49 48 69 44 39 49 57 23 85 -16 18 -16 19 5 25 12 3 24 4 28
2 9 -6 34 72 34 109 0 17 5 32 11 32 8 0 10 -19 6 -62 -7 -71 6 -113 17 -55 4
23 13 37 26 40 11 3 20 14 20 25 0 11 7 25 15 32 19 15 14 23 -9 14 -9 -3 -13
-10 -10 -15 3 -5 -1 -9 -8 -9 -17 0 -24 65 -8 75 14 9 13 71 -2 95 -11 17 -10
22 1 29 17 11 41 -10 41 -36 0 -10 4 -25 10 -33 6 -9 5 -17 -3 -22 -8 -5 -6
-8 6 -8 9 0 18 -8 18 -17 1 -10 4 -4 8 12 7 31 5 815 -3 1763 -4 503 -4 542
12 543 11 0 12 3 5 6 -7 2 -13 16 -13 29 0 13 -5 24 -11 24 -8 0 -8 4 -1 13 5
6 10 45 11 85 1 40 6 84 11 98 6 14 10 39 10 57 0 29 -1 30 -15 11 -14 -18
-14 -18 -15 8 0 14 -5 28 -12 30 -17 6 15 88 46 117 36 34 43 7 10 -40 -15
-22 -24 -42 -20 -46 3 -3 6 -1 6 6 0 13 44 57 74 73 18 10 17 7 -4 -28 -48
-81 -49 -83 -51 -267 -2 -164 0 -179 17 -192 17 -13 18 -14 2 -15 -15 0 -18
-9 -18 -46 0 -41 2 -46 20 -41 21 5 19 -3 -6 -33 -9 -11 -13 -122 -15 -470 -2
-250 -7 -518 -11 -594 -5 -77 -5 -142 0 -145 4 -3 8 -53 8 -111 -1 -58 1 -261
3 -452 l3 -348 55 0 54 0 -29 -57 c-17 -32 -36 -78 -42 -102 -6 -24 -22 -54
-36 -68 -28 -28 -31 -41 -6 -39 16 1 17 -16 19 -219 1 -186 -1 -223 -14 -237
-9 -10 -19 -16 -22 -13 -4 2 -23 -9 -42 -26 -19 -16 -37 -29 -41 -29 -5 0 -8
-16 -8 -35 l0 -35 159 0 160 0 3 319 c3 302 4 320 23 341 27 30 76 50 123 50
55 0 59 -11 10 -30 -34 -12 -44 -22 -53 -50 -8 -29 -14 -34 -34 -32 -13 2 -28
-2 -32 -10 -7 -10 -9 -8 -9 7 0 13 -3 16 -11 8 -5 -5 -9 -34 -7 -64 3 -53 3
-53 41 -62 48 -11 50 -37 3 -37 -30 0 -34 -3 -39 -33 -8 -57 3 -106 27 -113
21 -7 45 -32 46 -47 0 -4 -16 -1 -35 7 -19 8 -37 11 -39 7 -3 -4 -4 -65 -3
-134 l2 -127 203 0 202 0 0 2300 0 2300 -373 0 -373 -1 -3 -40z m196 -2941
c-1 -79 -3 -15 -3 142 0 157 2 221 3 143 2 -79 2 -207 0 -285z m-448 299 c-2
-1 -13 -9 -24 -17 -19 -14 -19 -14 -6 3 7 9 18 17 24 17 6 0 8 -1 6 -3z m-19
-122 c0 -52 -4 -85 -10 -85 -7 0 -10 31 -8 85 2 47 6 85 11 85 4 0 7 -38 7
-85z m960 -495 c-18 -11 -22 -150 -5 -162 6 -4 -5 -8 -23 -8 l-33 0 3 -77 c3
-72 5 -78 23 -75 18 3 17 0 -8 -25 -22 -24 -27 -39 -28 -85 -2 -75 -19 -100
-19 -28 l0 55 -59 -3 -60 -4 -4 -36 c-3 -33 -4 -31 -5 11 -2 40 2 52 24 72 15
14 23 25 18 25 -29 1 28 20 59 20 l37 0 0 76 c0 66 3 77 19 81 19 5 31 59 31
141 0 27 4 32 23 32 18 0 19 -2 7 -10z m-350 -48 c0 -5 -11 -19 -25 -32 -14
-13 -25 -31 -25 -41 0 -12 -12 -21 -37 -28 -20 -6 -39 -8 -44 -6 -9 6 1 -198
11 -205 3 -3 9 -13 13 -22 3 -9 18 -18 34 -20 27 -4 26 -4 -12 -16 -41 -12
-105 -16 -105 -6 0 3 6 15 12 27 11 18 23 150 29 307 1 19 4 27 6 17 4 -16 8
-15 35 8 20 17 41 25 69 25 21 0 39 -4 39 -8z m127 -494 c-3 -8 -6 -5 -6 6 -1
11 2 17 5 13 3 -3 4 -12 1 -19z m-760 -180 c-3 -8 -6 -5 -6 6 -1 11 2 17 5 13
3 -3 4 -12 1 -19z m-37 -45 c0 -7 -4 -13 -10 -13 -5 0 -10 12 -10 28 0 21 2
24 10 12 5 -8 10 -21 10 -27z m490 -423 c0 -5 -6 -10 -14 -10 -8 0 -18 5 -21
10 -3 6 3 10 14 10 12 0 21 -4 21 -10z m250 0 c8 -5 12 -11 9 -14 -3 -3 -14 1
-25 9 -21 16 -8 20 16 5z"/>
<path d="M4050 920 c0 -5 5 -10 11 -10 5 0 7 5 4 10 -3 6 -8 10 -11 10 -2 0
-4 -4 -4 -10z"/>
<path d="M3495 4311 c4 -14 1 -19 -11 -17 -13 1 -17 -8 -17 -36 0 -21 2 -41 6
-44 3 -3 4 -11 1 -18 -7 -17 22 -81 30 -67 17 27 76 -77 76 -134 0 -13 5 -27
10 -30 6 -4 10 43 10 134 0 134 -1 141 -20 141 -11 0 -20 6 -20 13 0 6 -16 27
-36 45 -27 25 -34 28 -29 13z m0 -39 c-3 -3 -11 0 -18 7 -9 10 -8 11 6 5 10
-3 15 -9 12 -12z"/>
<path d="M3875 4240 c-3 -5 -1 -10 4 -10 6 0 11 5 11 10 0 6 -2 10 -4 10 -3 0
-8 -4 -11 -10z"/>
<path d="M2883 4217 c3 -9 -9 -17 -38 -25 -33 -9 -45 -18 -55 -42 -7 -17 -30
-46 -51 -64 -44 -37 -52 -57 -14 -32 37 24 30 8 -14 -34 -45 -43 -64 -108 -54
-189 4 -39 10 -51 23 -51 15 0 17 -11 19 -72 1 -44 7 -75 14 -80 9 -6 9 -10
-2 -17 -8 -5 -10 -14 -5 -22 10 -17 12 -59 2 -65 -4 -3 -3 -15 1 -27 6 -15 4
-34 -5 -56 -8 -19 -13 -35 -12 -36 2 -1 30 4 63 11 33 7 75 13 93 13 47 1 36
25 -14 30 -35 3 -37 5 -14 11 20 6 14 8 -25 9 -48 1 -49 1 -26 17 15 11 19 20
13 26 -7 7 -5 22 5 47 29 67 32 76 54 152 16 57 28 80 44 89 23 12 75 115 75
146 0 8 8 31 19 52 10 20 22 53 26 72 4 19 12 38 18 41 5 4 7 22 3 43 -6 32
-10 36 -36 36 -17 0 -33 0 -36 -1 -4 0 -11 5 -15 13 -7 11 -11 10 -19 -2 -8
-13 -10 -12 -10 3 0 9 -7 17 -16 17 -9 0 -14 -6 -11 -13z"/>
<path d="M3041 4184 c0 -11 3 -14 6 -6 3 7 2 16 -1 19 -3 4 -6 -2 -5 -13z"/>
<path d="M3331 4154 c0 -11 3 -14 6 -6 3 7 2 16 -1 19 -3 4 -6 -2 -5 -13z"/>
<path d="M3098 4133 c7 -3 16 -2 19 1 4 3 -2 6 -13 5 -11 0 -14 -3 -6 -6z"/>
<path d="M3160 4118 c0 -4 4 -8 9 -8 6 0 12 4 15 8 3 5 -1 9 -9 9 -8 0 -15 -4
-15 -9z"/>
<path d="M2800 3570 c0 -5 5 -10 11 -10 5 0 7 5 4 10 -3 6 -8 10 -11 10 -2 0
-4 -4 -4 -10z"/>
<path d="M0 2339 l0 -1069 37 15 c47 20 51 24 33 35 -11 7 -12 13 -2 35 8 16
13 89 14 193 l2 167 5 -160 c3 -88 3 -185 0 -215 -6 -52 4 -86 21 -75 12 8 23
94 21 170 -1 77 13 119 24 72 6 -24 12 -27 46 -27 35 0 39 3 39 25 0 23 4 25
40 25 29 0 40 4 40 15 0 11 -11 15 -40 15 l-40 0 0 55 0 55 40 0 41 0 -6 63
c-8 88 27 149 56 96 9 -17 9 -24 0 -27 -6 -2 -11 -21 -11 -43 0 -21 -4 -39
-10 -39 -5 0 -10 -18 -10 -40 0 -38 2 -40 30 -40 28 0 30 -2 30 -40 0 -22 5
-40 10 -40 13 0 13 157 0 162 -6 2 -7 47 -3 120 l6 117 31 4 c17 3 9 3 -19 2
-27 -1 -56 0 -62 2 -20 7 -15 23 7 23 11 0 20 -4 20 -8 0 -5 15 -6 33 -3 l32
5 -30 6 c-34 7 335 3 378 -4 l27 -4 0 143 c0 91 -4 146 -11 150 -6 4 -8 14 -5
22 7 17 -10 43 -28 43 -6 0 -5 -4 3 -9 17 -11 4 -34 -15 -27 -19 7 -18 -24 1
-38 13 -10 13 -15 1 -38 -8 -15 -10 -28 -5 -30 4 -2 9 -29 10 -60 1 -32 7 -58
12 -58 6 0 3 -6 -7 -13 -18 -13 -18 -14 0 -21 16 -6 16 -9 4 -17 -12 -8 -10
-10 8 -6 12 3 22 1 22 -3 0 -12 -172 -11 -191 1 -8 5 -9 9 -4 9 6 0 4 4 -3 9
-10 6 -10 10 3 21 10 8 15 9 15 1 0 -7 20 -11 53 -11 32 0 47 4 39 9 -8 4 -13
14 -12 22 5 34 -1 39 -50 39 l-50 0 -2 83 c-1 45 -2 97 -3 114 -3 46 -74 148
-103 147 -12 0 -22 3 -22 8 0 18 29 19 94 4 77 -18 96 -20 96 -7 0 15 -129 51
-206 58 l-74 6 -1 186 c0 151 -3 193 -17 226 -36 84 -26 79 -174 86 -121 5
-140 11 -48 14 95 4 105 5 91 14 -12 8 -9 11 13 17 19 5 24 10 17 17 -8 8 -14
8 -23 -1 -7 -7 -20 -12 -31 -12 -10 0 -15 -4 -12 -10 4 -6 -5 -10 -20 -10 -17
0 -24 4 -19 12 5 8 2 9 -11 5 -14 -6 -16 -3 -11 15 3 13 6 27 6 32 0 5 28 6
64 3 35 -3 67 -2 73 4 6 6 25 1 52 -12 33 -15 46 -18 51 -9 5 8 10 8 14 2 11
-18 -26 -37 -72 -35 -27 1 -41 -2 -33 -6 11 -7 11 -9 0 -13 -8 -3 3 -8 24 -12
32 -6 42 -4 56 13 26 30 31 26 31 -19 0 -38 2 -40 30 -40 20 0 30 -5 30 -15 0
-11 11 -15 38 -15 32 0 39 4 51 31 8 18 11 49 8 75 -2 26 1 54 9 69 7 14 9 25
3 25 -5 0 -9 7 -9 16 0 8 -4 13 -8 10 -4 -3 -8 6 -8 20 1 15 -15 45 -39 74
-41 50 -43 51 -102 35 -10 -3 -3 2 15 10 18 9 30 20 27 25 -9 14 -104 39 -145
39 -36 0 -92 -1 -145 -2 -16 -1 -63 2 -102 5 l-73 7 0 -1070z m520 920 c0 -5
5 -7 10 -4 6 3 10 -3 10 -14 0 -24 -8 -26 -32 -7 -22 16 -23 36 -3 36 8 0 15
-5 15 -11z m-410 -271 c0 -25 -12 -58 -21 -58 -10 0 -12 53 -2 63 10 11 23 8
23 -5z m168 -2 c33 -18 55 -43 77 -90 15 -32 17 -65 13 -284 -4 -236 -5 -249
-26 -279 -12 -17 -22 -36 -22 -42 0 -6 -7 -11 -15 -11 -18 0 -20 48 -15 373
l2 207 -23 0 c-22 1 -23 2 -6 14 23 18 22 30 -2 23 -14 -3 -18 -1 -14 9 3 8
-9 25 -26 40 -35 29 -38 41 -13 47 31 8 43 7 70 -7z m-137 -53 c-12 -20 -14
-14 -5 12 4 9 9 14 11 11 3 -2 0 -13 -6 -23z m49 17 c0 -5 -4 -10 -9 -10 -6 0
-13 5 -16 10 -3 6 1 10 9 10 9 0 16 -4 16 -10z m-90 -39 c0 -6 -4 -13 -10 -16
-5 -3 -10 1 -10 9 0 9 5 16 10 16 6 0 10 -4 10 -9z m-13 -103 c-2 -13 -4 -5
-4 17 -1 22 1 32 4 23 2 -10 2 -28 0 -40z m0 -280 c-3 -7 -5 -2 -5 12 0 14 2
19 5 13 2 -7 2 -19 0 -25z m361 -31 c-21 -17 -25 -26 -17 -39 7 -12 7 -18 -1
-18 -5 0 -10 -6 -10 -14 0 -8 -4 -18 -10 -21 -6 -4 -10 17 -10 54 l0 61 38 0
37 -1 -27 -22z m-361 -99 c-2 -24 -4 -7 -4 37 0 44 2 63 4 43 2 -21 2 -57 0
-80z m59 45 c-10 -10 -19 5 -10 18 6 11 8 11 12 0 2 -7 1 -15 -2 -18z m336
-18 c-2 -15 2 -31 9 -36 9 -5 10 -11 2 -21 -7 -7 -14 -31 -16 -53 -4 -35 -4
-34 -3 7 1 29 -4 50 -11 52 -10 4 -11 39 -4 84 1 2 7 2 14 -1 7 -2 11 -16 9
-32z m45 19 c-3 -3 -12 -4 -19 -1 -8 3 -5 6 6 6 11 1 17 -2 13 -5z m3 -24 c0
-5 -9 -10 -21 -10 -11 0 -17 5 -14 10 3 6 13 10 21 10 8 0 14 -4 14 -10z
m-340 -100 c0 -33 -3 -40 -20 -40 -17 0 -20 -7 -20 -42 0 -23 -3 -39 -6 -35
-3 3 -3 40 1 81 6 65 10 76 26 76 15 0 19 -7 19 -40z m287 -177 c-2 -16 -4 -5
-4 22 0 28 2 40 4 28 2 -13 2 -35 0 -50z m-390 -20 c-2 -16 -4 -3 -4 27 0 30
2 43 4 28 2 -16 2 -40 0 -55z m550 -35 c-3 -8 -6 -5 -6 6 -1 11 2 17 5 13 3
-3 4 -12 1 -19z m-354 -73 c9 -4 17 -11 17 -15 0 -11 -55 -27 -112 -33 -45 -4
-48 -3 -48 18 0 47 7 52 68 44 31 -4 65 -10 75 -14z m57 1 c0 -3 -4 -8 -10
-11 -5 -3 -10 -1 -10 4 0 6 5 11 10 11 6 0 10 -2 10 -4z m-253 -123 c-2 -21
-4 -6 -4 32 0 39 2 55 4 38 2 -18 2 -50 0 -70z m273 27 c0 -22 -4 -40 -10 -40
-5 0 -10 18 -10 40 0 22 5 40 10 40 6 0 10 -18 10 -40z m-273 -192 c-3 -7 -5
-2 -5 12 0 14 2 19 5 13 2 -7 2 -19 0 -25z m73 -99 c0 -55 -3 -69 -15 -69 -12
0 -15 12 -14 58 1 68 7 94 20 87 5 -4 9 -37 9 -76z"/>
<path d="M2801 3384 c0 -11 3 -14 6 -6 3 7 2 16 -1 19 -3 4 -6 -2 -5 -13z"/>
<path d="M2238 3092 c-25 -2 -38 -8 -38 -17 0 -9 -22 -20 -57 -30 -125 -34
-184 -57 -208 -81 -13 -13 -35 -24 -49 -24 -13 0 -38 -12 -55 -26 -18 -15 -36
-22 -43 -18 -7 4 -10 4 -6 -1 4 -4 -26 -44 -68 -87 -57 -60 -74 -83 -68 -96 5
-9 10 -61 12 -116 3 -86 6 -99 22 -103 10 -3 16 -11 14 -18 -3 -7 7 -32 21
-54 27 -40 27 -42 15 -105 -7 -37 -18 -67 -26 -70 -24 -9 -15 -32 19 -47 24
-10 33 -21 35 -44 2 -16 11 -35 20 -41 10 -7 17 -18 17 -26 0 -7 10 -17 22
-23 12 -5 25 -21 28 -35 15 -58 51 -64 145 -25 71 30 91 31 114 6 16 -17 15
-20 -19 -50 -20 -17 -40 -31 -45 -31 -5 0 -11 -8 -14 -18 -3 -9 -19 -32 -35
-50 -63 -68 -76 -98 -38 -89 71 17 87 18 87 8 0 -6 -11 -11 -25 -11 -28 0 -32
-12 -10 -30 8 -7 15 -19 15 -28 0 -13 -13 -14 -85 -8 -71 5 -87 4 -91 -9 -4
-10 -19 -15 -44 -15 -48 0 -86 -30 -100 -78 -5 -20 -10 -92 -10 -158 0 -113
-2 -125 -27 -170 -36 -66 -61 -93 -82 -87 -27 7 -55 -58 -47 -110 10 -58 40
-123 83 -176 84 -102 87 -109 91 -206 3 -64 -1 -108 -13 -150 -9 -33 -22 -79
-28 -102 -5 -24 -14 -43 -18 -43 -14 0 -69 -129 -72 -168 -2 -28 -7 -36 -20
-34 -19 3 -24 -23 -7 -33 6 -4 9 -14 6 -23 -2 -10 -8 -45 -11 -79 l-7 -63 791
0 791 0 0 21 c0 23 -73 165 -121 234 -54 79 -73 96 -103 91 -15 -3 -34 -10
-42 -17 -11 -9 -17 -9 -29 1 -32 27 -48 -22 -19 -64 l15 -24 -72 3 c-56 2 -76
7 -86 21 -9 13 -13 14 -13 4 0 -23 -24 6 -58 72 l-31 56 30 12 c16 7 46 25 65
41 19 15 51 33 70 39 40 14 52 34 88 151 14 47 34 97 44 110 27 34 46 73 33
65 -11 -7 -9 17 9 144 5 34 4 57 -2 61 -15 10 15 18 45 12 50 -10 75 4 87 47
13 47 7 60 -24 60 -20 0 -25 8 -36 60 -13 60 -12 61 13 88 14 15 34 53 44 84
19 55 19 59 2 110 -9 29 -33 82 -53 118 -19 36 -36 73 -36 83 0 9 20 32 45 49
25 18 46 35 46 40 3 20 5 24 14 38 11 17 14 131 3 124 -3 -2 -12 12 -18 32 -7
19 -34 67 -61 106 -27 40 -49 76 -49 81 0 6 -30 71 -67 146 -37 74 -66 143
-66 153 1 10 -2 16 -8 13 -9 -6 -11 -2 -14 46 -1 14 -5 39 -10 55 -4 16 -9 40
-10 54 -1 14 -17 53 -34 88 -17 35 -29 68 -25 73 9 16 -35 96 -79 143 -21 23
-43 49 -50 59 -7 9 -23 19 -36 22 -13 2 -34 13 -45 24 -57 52 -133 72 -238 63z
m-51 -518 c-3 -3 -12 -4 -19 -1 -8 3 -5 6 6 6 11 1 17 -2 13 -5z m53 -57 c0
-12 0 -11 -24 28 l-17 30 20 -24 c12 -13 21 -28 21 -34z m701 -474 c37 -61 58
-115 58 -156 1 -41 -13 -77 -30 -77 -6 0 -7 5 -4 10 3 6 1 10 -4 10 -6 0 -11
22 -11 53 0 28 -9 85 -19 125 -11 39 -18 72 -16 72 2 0 13 -17 26 -37z m67
-521 c2 -7 -1 -12 -8 -12 -6 0 -8 5 -4 12 5 7 2 9 -9 5 -8 -3 -18 0 -21 8 -4
11 0 12 16 6 12 -4 24 -13 26 -19z m-193 -262 c-11 -5 -33 -9 -50 -9 -23 -1
-26 2 -15 9 8 5 31 9 50 9 29 0 31 -2 15 -9z m-217 -628 c-2 -30 -7 -37 -23
-35 -11 2 -30 4 -42 5 -13 1 -23 4 -23 7 0 2 17 22 38 45 42 47 55 41 50 -22z"/>
<path d="M388 3005 c2 -14 6 -25 8 -25 2 0 4 11 4 25 0 14 -4 25 -9 25 -4 0
-6 -11 -3 -25z"/>
<path d="M572 2960 c0 -19 2 -27 5 -17 2 9 2 25 0 35 -3 9 -5 1 -5 -18z"/>
<path d="M561 2904 c0 -11 3 -14 6 -6 3 7 2 16 -1 19 -3 4 -6 -2 -5 -13z"/>
<path d="M2690 2775 c0 -5 10 -21 21 -35 13 -17 17 -18 10 -5 -17 33 -31 51
-31 40z"/>
<path d="M561 2664 c0 -11 3 -14 6 -6 3 7 2 16 -1 19 -3 4 -6 -2 -5 -13z"/>
<path d="M700 2321 c0 -5 5 -13 10 -16 19 -12 10 -22 -30 -34 -48 -14 -51 -26
-7 -36 l32 -7 -35 -13 c-19 -7 -29 -14 -21 -14 7 -1 25 -13 39 -28 l26 -28 8
40 c12 54 6 137 -9 143 -7 2 -13 -1 -13 -7z"/>
<path d="M473 1840 c0 -25 2 -35 4 -22 2 12 2 32 0 45 -2 12 -4 2 -4 -23z"/>
<path d="M323 1760 c0 -25 2 -35 4 -22 2 12 2 32 0 45 -2 12 -4 2 -4 -23z"/>
<path d="M452 1708 c6 -18 28 -21 28 -4 0 9 -7 16 -16 16 -9 0 -14 -5 -12 -12z"/>
<path d="M817 1483 c-3 -5 -1 -17 4 -28 7 -17 8 -17 8 8 1 27 -4 34 -12 20z"/>
<path d="M0 920 l0 -100 28 0 c27 0 27 0 24 60 -3 45 -8 60 -19 60 -8 0 -13 8
-12 18 3 35 -1 62 -11 62 -6 0 -10 -40 -10 -100z"/>
<path d="M3400 889 c0 -5 5 -7 10 -4 6 3 10 8 10 11 0 2 -4 4 -10 4 -5 0 -10
-5 -10 -11z"/>
<path d="M3451 883 c0 -7 -4 -12 -8 -12 -5 1 -18 1 -30 0 -27 -1 -97 -66 -88
-81 4 -6 1 -18 -6 -26 -11 -13 -15 -13 -23 -2 -7 7 -30 13 -57 13 -46 0 -46 0
-43 -32 1 -22 -3 -37 -14 -44 -16 -10 -15 -10 1 -5 14 4 17 -1 17 -29 0 -19 7
-43 15 -52 67 -78 83 -101 86 -118 6 -28 44 -31 71 -5 18 17 20 23 9 29 -10 6
-3 12 22 20 27 9 37 19 40 39 3 24 4 23 7 -8 l2 -35 9 40 c10 49 9 249 -1 290
-4 17 -8 24 -9 18z"/>
<path d="M0 802 c0 -5 11 -14 25 -20 26 -12 33 -4 13 16 -14 14 -38 16 -38 4z"/>
<path d="M0 385 l0 -385 485 0 485 0 0 48 c0 84 -13 87 -148 36 l-73 -27 -37
35 c-20 19 -55 48 -77 64 -22 15 -48 36 -57 45 -15 15 -15 18 -2 23 9 3 28 6
44 6 16 0 41 5 55 10 23 9 26 14 20 38 -4 15 -8 29 -10 30 -2 2 -57 -5 -122
-16 -100 -17 -119 -18 -126 -6 -4 7 -41 29 -81 49 -69 33 -79 35 -177 35 -129
0 -121 16 11 24 52 3 118 9 145 14 45 8 37 10 -70 12 -109 2 -116 4 -73 13
l46 10 -1 138 c-1 75 -5 141 -10 145 -4 4 -33 9 -65 12 -31 3 -67 11 -79 20
-22 13 -23 13 -24 -9 0 -13 -3 -18 -6 -11 -2 6 -11 12 -19 12 -8 0 -14 5 -14
10 0 6 -4 10 -10 10 -5 0 -9 -147 -10 -385z m515 -276 c4 -6 13 -8 21 -5 8 3
13 1 11 -4 -1 -5 7 -15 18 -24 19 -14 19 -15 2 -21 -20 -8 -61 16 -77 45 -8
16 -8 20 4 20 8 0 18 -5 21 -11z"/>
<path d="M3881 634 c0 -11 3 -14 6 -6 3 7 2 16 -1 19 -3 4 -6 -2 -5 -13z"/>
<path d="M3167 574 c-3 -4 0 -13 8 -20 18 -18 31 -18 16 -1 -6 8 -8 17 -4 20
3 4 2 7 -4 7 -5 0 -12 -3 -16 -6z"/>
<path d="M3951 331 c-1 -27 2 -32 11 -23 8 8 8 17 0 34 -10 22 -11 21 -11 -11z"/>
<path d="M3847 196 c-6 -15 1 -26 15 -26 4 0 8 9 8 20 0 23 -15 27 -23 6z"/>
<path d="M3957 183 c-4 -3 -7 -13 -7 -22 1 -13 3 -13 11 2 11 19 8 33 -4 20z"/>
<path d="M3771 63 c-1 -61 13 -87 22 -40 l4 22 2 -22 c1 -16 7 -23 21 -23 17
0 20 7 20 44 0 35 -5 48 -22 61 -21 14 -23 14 -29 -2 -6 -16 -7 -16 -11 2 -3
11 -6 -8 -7 -42z"/>
</g>
</svg>
